<?xml version="1.0" encoding="UTF-8" standalone="no"?>
<!-- Created with Inkscape (http://www.inkscape.org/) -->
<svg
   xmlns:dc="http://purl.org/dc/elements/1.1/"
   xmlns:cc="http://web.resource.org/cc/"
   xmlns:rdf="http://www.w3.org/1999/02/22-rdf-syntax-ns#"
   xmlns:svg="http://www.w3.org/2000/svg"
   xmlns="http://www.w3.org/2000/svg"
   xmlns:sodipodi="http://sodipodi.sourceforge.net/DTD/sodipodi-0.dtd"
   xmlns:inkscape="http://www.inkscape.org/namespaces/inkscape"
   width="744.09448819"
   height="1052.3622047"
   id="svg2"
   sodipodi:version="0.32"
   inkscape:version="0.45.1"
   sodipodi:docbase="/Users/mz2/workspace/MotifXplorer/doc"
   sodipodi:docname="motifsetcolors.svg"
   inkscape:output_extension="org.inkscape.output.svg.inkscape">
  <defs
     id="defs4" />
  <sodipodi:namedview
     id="base"
     pagecolor="#ffffff"
     bordercolor="#666666"
     borderopacity="1.0"
     gridtolerance="10000"
     guidetolerance="10"
     objecttolerance="10"
     inkscape:pageopacity="0.0"
     inkscape:pageshadow="2"
     inkscape:zoom="0.175"
     inkscape:cx="160.86621"
     inkscape:cy="526.18161"
     inkscape:document-units="px"
     inkscape:current-layer="layer1"
     inkscape:window-width="1114"
     inkscape:window-height="773"
     inkscape:window-x="0"
     inkscape:window-y="22" />
  <metadata
     id="metadata7">
    <rdf:RDF>
      <cc:Work
         rdf:about="">
        <dc:format>image/svg+xml</dc:format>
        <dc:type
           rdf:resource="http://purl.org/dc/dcmitype/StillImage" />
      </cc:Work>
    </rdf:RDF>
  </metadata>
  <g
     inkscape:label="Layer 1"
     inkscape:groupmode="layer"
     id="layer1">
    <rect
       style="opacity:0.9685864;fill:#00b100;fill-opacity:1;stroke:none;stroke-width:5.69999981;stroke-miterlimit:4;stroke-dasharray:none;stroke-opacity:1"
       id="rect2160"
       width="94.285713"
       height="85.714287"
       x="84.58873"
       y="-1011.7719"
       ry="42.857143"
       transform="matrix(1.8339354e-2,-0.9998318,0.9998318,1.8339354e-2,0,0)" />
    <rect
       style="opacity:0.9685864;fill:#0000ff;fill-opacity:1;stroke:none;stroke-width:5.69999981;stroke-miterlimit:4;stroke-dasharray:none;stroke-opacity:1"
       id="rect2162"
       width="68.571426"
       height="91.428574"
       x="104.58873"
       y="-854.62897"
       ry="34.285713"
       transform="matrix(1.8339354e-2,-0.9998318,0.9998318,1.8339354e-2,0,0)" />
    <rect
       style="opacity:0.9685864;fill:#00ffff;fill-opacity:1;stroke:none;stroke-width:5.69999981;stroke-miterlimit:4;stroke-dasharray:none;stroke-opacity:1"
       id="rect2164"
       width="62.857143"
       height="77.14286"
       x="137.0499"
       y="1205.2567"
       ry="31.428572"
       transform="matrix(1.8339354e-2,-0.9998318,0.9998318,1.8339354e-2,0,0)" />
    <rect
       style="opacity:0.9685864;fill:#ff0000;fill-opacity:1;stroke:none;stroke-width:5.69999981;stroke-miterlimit:4;stroke-dasharray:none;stroke-opacity:1"
       id="rect2166"
       width="94.285713"
       height="94.285713"
       x="101.54964"
       y="-700.31537"
       ry="31.428572"
       transform="matrix(1.8339354e-2,-0.9998318,0.9998318,1.8339354e-2,0,0)" />
    <rect
       style="opacity:0.9685864;fill:#ff6600;fill-opacity:1;stroke:none;stroke-width:5.69999981;stroke-miterlimit:4;stroke-dasharray:none;stroke-opacity:1"
       id="rect2168"
       width="137.14285"
       height="151.42857"
       x="95.678154"
       y="-262.90912"
       ry="31.428572"
       transform="matrix(1.8339354e-2,-0.9998318,0.9998318,1.8339354e-2,0,0)" />
    <rect
       style="opacity:0.9685864;fill:#d38d5f;fill-opacity:1;stroke:none;stroke-width:5.69999981;stroke-miterlimit:4;stroke-dasharray:none;stroke-opacity:1"
       id="rect2170"
       width="77.14286"
       height="80"
       x="121.26196"
       y="-531.82001"
       ry="31.428572"
       transform="matrix(1.8339354e-2,-0.9998318,0.9998318,1.8339354e-2,0,0)" />
    <rect
       style="opacity:0.9685864;fill:#0044aa;fill-opacity:1;stroke:none;stroke-width:5.69999981;stroke-miterlimit:4;stroke-dasharray:none;stroke-opacity:1"
       id="rect2172"
       width="94.285713"
       height="111.42857"
       x="116.3317"
       y="-51.77475"
       ry="31.428572"
       transform="matrix(1.8339354e-2,-0.9998318,0.9998318,1.8339354e-2,0,0)" />
    <rect
       style="opacity:0.9685864;fill:#aad400;fill-opacity:1;stroke:none;stroke-width:5.69999981;stroke-miterlimit:4;stroke-dasharray:none;stroke-opacity:1"
       id="rect2174"
       width="94.285698"
       height="85.714272"
       x="97.785675"
       y="-388.74182"
       ry="42.857136"
       transform="matrix(6.6459364e-2,-0.9977891,0.9977891,6.6459364e-2,0,0)" />
    <rect
       style="opacity:0.9685864;fill:#ff8080;fill-opacity:1;stroke:none;stroke-width:5.69999981;stroke-miterlimit:4;stroke-dasharray:none;stroke-opacity:1"
       id="rect2176"
       width="68.571426"
       height="91.428558"
       x="150.06593"
       y="253.04146"
       ry="34.285713"
       transform="matrix(6.645936e-2,-0.9977891,0.9977891,6.645936e-2,0,0)" />
    <rect
       style="opacity:0.9685864;fill:#37c837;fill-opacity:1;stroke:none;stroke-width:5.69999981;stroke-miterlimit:4;stroke-dasharray:none;stroke-opacity:1"
       id="rect2178"
       width="62.857132"
       height="77.14286"
       x="146.86975"
       y="124.6713"
       ry="31.428566"
       transform="matrix(6.6459362e-2,-0.9977891,0.9977891,6.6459362e-2,0,0)" />
    <rect
       style="opacity:0.9685864;fill:#5599ff;fill-opacity:1;stroke:none;stroke-width:5.69999981;stroke-miterlimit:4;stroke-dasharray:none;stroke-opacity:1"
       id="rect2180"
       width="94.285698"
       height="94.285698"
       x="148.16708"
       y="544.53308"
       ry="31.428566"
       transform="matrix(6.6459362e-2,-0.9977891,0.9977891,6.6459362e-2,0,0)" />
    <rect
       style="opacity:0.9685864;fill:#8080ff;fill-opacity:1;stroke:none;stroke-width:5.69999981;stroke-miterlimit:4;stroke-dasharray:none;stroke-opacity:1"
       id="rect2182"
       width="137.14285"
       height="151.42857"
       x="168.68716"
       y="987.08771"
       ry="31.428564"
       transform="matrix(6.6459364e-2,-0.9977891,0.9977891,6.6459364e-2,0,0)" />
    <rect
       style="opacity:0.9685864;fill:#cc00ff;fill-opacity:1;stroke:none;stroke-width:5.69999981;stroke-miterlimit:4;stroke-dasharray:none;stroke-opacity:1"
       id="rect2184"
       width="77.14286"
       height="80"
       x="175.96402"
       y="700.56097"
       ry="31.428566"
       transform="matrix(6.6459362e-2,-0.9977891,0.9977891,6.6459362e-2,0,0)" />
    <rect
       style="opacity:0.9685864;fill:#6600ff;fill-opacity:1;stroke:none;stroke-width:5.69999981;stroke-miterlimit:4;stroke-dasharray:none;stroke-opacity:1"
       id="rect2186"
       width="94.285698"
       height="111.42856"
       x="222.1044"
       y="1628.0728"
       ry="31.428564"
       transform="matrix(6.6459364e-2,-0.9977891,0.9977891,6.6459364e-2,0,0)" />
    <rect
       style="opacity:0.9685864;fill:#ff0066;fill-opacity:1;stroke:none;stroke-width:5.69999981;stroke-miterlimit:4;stroke-dasharray:none;stroke-opacity:1"
       id="rect2188"
       width="94.285713"
       height="85.714287"
       x="125.6268"
       y="399.26715"
       ry="42.857143"
       transform="matrix(1.8339354e-2,-0.9998318,0.9998318,1.8339354e-2,0,0)"
       inkscape:transform-center-x="635.38231"
       inkscape:transform-center-y="365.55181" />
    <rect
       style="opacity:0.9685864;fill:#916f7c;fill-opacity:1;stroke:none;stroke-width:5.69999981;stroke-miterlimit:4;stroke-dasharray:none;stroke-opacity:1"
       id="rect2190"
       width="68.571426"
       height="91.428574"
       x="145.25812"
       y="847.89447"
       ry="34.285713"
       transform="matrix(1.8339354e-2,-0.9998318,0.9998318,1.8339354e-2,0,0)"
       inkscape:transform-center-x="475.27821"
       inkscape:transform-center-y="361.34445" />
    <rect
       style="opacity:0.9685864;fill:#de87aa;fill-opacity:1;stroke:none;stroke-width:5.69999981;stroke-miterlimit:4;stroke-dasharray:none;stroke-opacity:1"
       id="rect2192"
       width="62.857143"
       height="77.14286"
       x="140.30309"
       y="1491.0852"
       ry="31.428572"
       transform="matrix(1.8339354e-2,-0.9998318,0.9998318,1.8339354e-2,0,0)"
       inkscape:transform-center-x="348.05201"
       inkscape:transform-center-y="357.96286" />
    <rect
       style="opacity:0.9685864;fill:#808000;fill-opacity:1;stroke:none;stroke-width:5.69999981;stroke-miterlimit:4;stroke-dasharray:none;stroke-opacity:1"
       id="rect2194"
       width="94.285713"
       height="94.285713"
       x="137.08015"
       y="1345.2172"
       ry="31.428572"
       transform="matrix(1.8339354e-2,-0.9998318,0.9998318,1.8339354e-2,0,0)"
       inkscape:transform-center-x="153.66792"
       inkscape:transform-center-y="354.38426" />
    <rect
       style="opacity:0.9685864;fill:#ff5555;fill-opacity:1;stroke:none;stroke-width:5.69999981;stroke-miterlimit:4;stroke-dasharray:none;stroke-opacity:1"
       id="rect2196"
       width="137.14285"
       height="151.42857"
       x="137.44591"
       y="1811.0852"
       ry="31.428572"
       transform="matrix(1.8339354e-2,-0.9998318,0.9998318,1.8339354e-2,0,0)"
       inkscape:transform-center-x="-9.6595425"
       inkscape:transform-center-y="330.23272" />
    <rect
       style="opacity:0.9685864;fill:#aad400;fill-opacity:1;stroke:none;stroke-width:5.69999981;stroke-miterlimit:4;stroke-dasharray:none;stroke-opacity:1"
       id="rect2198"
       width="77.14286"
       height="80"
       x="148.8745"
       y="2016.7994"
       ry="31.428572"
       transform="matrix(1.8339354e-2,-0.9998318,0.9998318,1.8339354e-2,0,0)"
       inkscape:transform-center-x="-179.2903"
       inkscape:transform-center-y="351.91869" />
    <rect
       style="opacity:0.9685864;fill:#006680;fill-opacity:1;stroke:none;stroke-width:5.69999981;stroke-miterlimit:4;stroke-dasharray:none;stroke-opacity:1"
       id="rect2200"
       width="94.285713"
       height="111.42857"
       x="151.73169"
       y="2122.5139"
       ry="31.428572"
       transform="matrix(1.8339354e-2,-0.9998318,0.9998318,1.8339354e-2,0,0)"
       inkscape:transform-center-x="-300.90811"
       inkscape:transform-center-y="342.71893" />
    <rect
       style="opacity:0.9685864;fill:#ccff00;fill-opacity:1;stroke:none;stroke-width:5.69999981;stroke-miterlimit:4;stroke-dasharray:none;stroke-opacity:1"
       id="rect2187"
       width="94.285713"
       height="111.42857"
       x="163.72047"
       y="2455.1267"
       ry="31.428572"
       transform="matrix(1.8339354e-2,-0.9998318,0.9998318,1.8339354e-2,0,0)"
       inkscape:transform-center-x="-300.90811"
       inkscape:transform-center-y="342.71893" />
    <rect
       style="opacity:0.9685864;fill:#a02c5a;fill-opacity:1;stroke:none;stroke-width:5.69999981;stroke-miterlimit:4;stroke-dasharray:none;stroke-opacity:1"
       id="rect2189"
       width="94.285713"
       height="111.42857"
       x="148.94037"
       y="2272.51"
       ry="31.428572"
       transform="matrix(1.8339354e-2,-0.9998318,0.9998318,1.8339354e-2,0,0)"
       inkscape:transform-center-x="-300.90811"
       inkscape:transform-center-y="342.71893" />
    <rect
       style="opacity:0.9685864;fill:#784421;fill-opacity:1;stroke:none;stroke-width:5.69999981;stroke-miterlimit:4;stroke-dasharray:none;stroke-opacity:1"
       id="rect2191"
       width="94.285713"
       height="111.42857"
       x="167.07397"
       y="2637.9531"
       ry="31.428572"
       transform="matrix(1.8339354e-2,-0.9998318,0.9998318,1.8339354e-2,0,0)"
       inkscape:transform-center-x="-300.90811"
       inkscape:transform-center-y="342.71893" />
  </g>
</svg>
