<?xml version="1.0" encoding="UTF-8" standalone="no"?>
<!-- Created with Inkscape (http://www.inkscape.org/) -->
<svg
   xmlns:dc="http://purl.org/dc/elements/1.1/"
   xmlns:cc="http://web.resource.org/cc/"
   xmlns:rdf="http://www.w3.org/1999/02/22-rdf-syntax-ns#"
   xmlns:svg="http://www.w3.org/2000/svg"
   xmlns="http://www.w3.org/2000/svg"
   xmlns:xlink="http://www.w3.org/1999/xlink"
   xmlns:sodipodi="http://sodipodi.sourceforge.net/DTD/sodipodi-0.dtd"
   xmlns:inkscape="http://www.inkscape.org/namespaces/inkscape"
   width="744.09448819"
   height="1052.3622047"
   id="svg2"
   sodipodi:version="0.32"
   inkscape:version="0.45.1"
   sodipodi:docbase="/Users/mz2/workspace/MotifXplorer/images"
   sodipodi:docname="mxplor.svg"
   inkscape:output_extension="org.inkscape.output.svg.inkscape">
  <defs
     id="defs4">
    <linearGradient
       id="linearGradient3278">
      <stop
         id="stop3280"
         offset="0"
         style="stop-color:#001854;stop-opacity:1;" />
      <stop
         id="stop3282"
         offset="1"
         style="stop-color:#1293ff;stop-opacity:1;" />
    </linearGradient>
    <linearGradient
       id="linearGradient3208">
      <stop
         style="stop-color:#0067f2;stop-opacity:1;"
         offset="0"
         id="stop3210" />
      <stop
         style="stop-color:#002454;stop-opacity:1;"
         offset="1"
         id="stop3212" />
    </linearGradient>
    <linearGradient
       id="linearGradient3231">
      <stop
         style="stop-color:#1d79e0;stop-opacity:1;"
         offset="0"
         id="stop3233" />
      <stop
         style="stop-color:#003d93;stop-opacity:1;"
         offset="1"
         id="stop3235" />
    </linearGradient>
    <linearGradient
       inkscape:collect="always"
       id="linearGradient3183">
      <stop
         style="stop-color:#d3e6ff;stop-opacity:1;"
         offset="0"
         id="stop3185" />
      <stop
         style="stop-color:#d3e6ff;stop-opacity:0;"
         offset="1"
         id="stop3187" />
    </linearGradient>
    <linearGradient
       id="linearGradient3925">
      <stop
         id="stop3927"
         offset="0"
         style="stop-color:#ffffff;stop-opacity:1;" />
      <stop
         id="stop3929"
         offset="1"
         style="stop-color:#86b7ff;stop-opacity:1;" />
    </linearGradient>
    <linearGradient
       id="linearGradient3251">
      <stop
         style="stop-color:#c6ffff;stop-opacity:1;"
         offset="0"
         id="stop3253" />
      <stop
         style="stop-color:#ffffff;stop-opacity:1;"
         offset="1"
         id="stop3255" />
    </linearGradient>
    <linearGradient
       id="linearGradient3241">
      <stop
         style="stop-color:#f0f6ff;stop-opacity:1;"
         offset="0"
         id="stop3243" />
      <stop
         style="stop-color:#418dff;stop-opacity:1;"
         offset="1"
         id="stop3245" />
    </linearGradient>
    <linearGradient
       id="linearGradient3155">
      <stop
         style="stop-color:#d5e1ff;stop-opacity:1;"
         offset="0"
         id="stop3157" />
      <stop
         style="stop-color:#1293ff;stop-opacity:1;"
         offset="1"
         id="stop3159" />
    </linearGradient>
    <linearGradient
       inkscape:collect="always"
       xlink:href="#linearGradient3155"
       id="linearGradient3161"
       x1="223.37448"
       y1="316.76093"
       x2="223.37448"
       y2="580.57324"
       gradientUnits="userSpaceOnUse"
       gradientTransform="matrix(0.5588235,0,0,0.5588236,47.295374,375.60545)" />
    <linearGradient
       inkscape:collect="always"
       xlink:href="#linearGradient3155"
       id="linearGradient3163"
       x1="743.05621"
       y1="316.76093"
       x2="741.54883"
       y2="580.57324"
       gradientUnits="userSpaceOnUse"
       gradientTransform="matrix(0.5588235,0,0,0.5588236,47.295374,375.60545)" />
    <linearGradient
       inkscape:collect="always"
       xlink:href="#linearGradient3925"
       id="linearGradient3247"
       x1="347.31662"
       y1="295.85999"
       x2="499.20151"
       y2="587.34064"
       gradientUnits="userSpaceOnUse"
       gradientTransform="matrix(0.5588235,0,0,0.5588235,42.505669,374.41407)" />
    <linearGradient
       inkscape:collect="always"
       xlink:href="#linearGradient3241"
       id="linearGradient3303"
       gradientUnits="userSpaceOnUse"
       gradientTransform="matrix(0.5588235,0,0,0.5588235,50.561115,380.95197)"
       x1="347.31662"
       y1="295.85999"
       x2="499.20151"
       y2="587.34064" />
    <linearGradient
       inkscape:collect="always"
       xlink:href="#linearGradient3241"
       id="linearGradient3593"
       gradientUnits="userSpaceOnUse"
       gradientTransform="matrix(0.5588235,0,0,0.5588235,50.561115,380.95197)"
       x1="347.31662"
       y1="295.85999"
       x2="499.20151"
       y2="587.34064" />
    <linearGradient
       inkscape:collect="always"
       xlink:href="#linearGradient3155"
       id="linearGradient3932"
       gradientUnits="userSpaceOnUse"
       gradientTransform="matrix(0.55044,0,0,0.5673347,45.157277,381.32607)"
       x1="743.05621"
       y1="316.76093"
       x2="741.54883"
       y2="580.57324" />
    <radialGradient
       inkscape:collect="always"
       xlink:href="#linearGradient3183"
       id="radialGradient3189"
       cx="355.71428"
       cy="643.79074"
       fx="355.71428"
       fy="643.79074"
       r="270"
       gradientUnits="userSpaceOnUse"
       gradientTransform="translate(-3.5153043,12.61234)" />
    <linearGradient
       inkscape:collect="always"
       xlink:href="#linearGradient3231"
       id="linearGradient3229"
       gradientUnits="userSpaceOnUse"
       gradientTransform="matrix(0.5588235,0,0,0.5588235,46.872474,377.3172)"
       x1="347.31662"
       y1="295.85999"
       x2="499.20151"
       y2="587.34064" />
    <radialGradient
       inkscape:collect="always"
       xlink:href="#linearGradient3183"
       id="radialGradient3239"
       gradientUnits="userSpaceOnUse"
       cx="355.71428"
       cy="643.79074"
       fx="355.71428"
       fy="643.79074"
       r="270"
       gradientTransform="translate(-185.04151,306.64186)" />
    <linearGradient
       inkscape:collect="always"
       xlink:href="#linearGradient3155"
       id="linearGradient3253"
       gradientUnits="userSpaceOnUse"
       gradientTransform="matrix(0.5588235,0,0,0.5588236,47.295374,375.60545)"
       x1="223.37448"
       y1="316.76093"
       x2="223.37448"
       y2="580.57324" />
    <linearGradient
       inkscape:collect="always"
       xlink:href="#linearGradient3155"
       id="linearGradient3255"
       gradientUnits="userSpaceOnUse"
       gradientTransform="matrix(0.55044,0,0,0.5673347,45.157277,381.32607)"
       x1="743.05621"
       y1="316.76093"
       x2="741.54883"
       y2="580.57324" />
    <linearGradient
       inkscape:collect="always"
       xlink:href="#linearGradient3231"
       id="linearGradient3257"
       gradientUnits="userSpaceOnUse"
       gradientTransform="matrix(0.5588235,0,0,0.5588235,46.872474,377.3172)"
       x1="347.31662"
       y1="295.85999"
       x2="499.20151"
       y2="587.34064" />
    <linearGradient
       inkscape:collect="always"
       xlink:href="#linearGradient3925"
       id="linearGradient3259"
       gradientUnits="userSpaceOnUse"
       gradientTransform="matrix(0.5588235,0,0,0.5588235,42.505669,374.41407)"
       x1="347.31662"
       y1="295.85999"
       x2="499.20151"
       y2="587.34064" />
    <radialGradient
       inkscape:collect="always"
       xlink:href="#linearGradient3183"
       id="radialGradient3266"
       gradientUnits="userSpaceOnUse"
       gradientTransform="translate(-3.5153043,12.61234)"
       cx="355.71428"
       cy="643.79074"
       fx="355.71428"
       fy="643.79074"
       r="270" />
    <radialGradient
       inkscape:collect="always"
       xlink:href="#linearGradient3183"
       id="radialGradient3269"
       gradientUnits="userSpaceOnUse"
       gradientTransform="matrix(1.3764799,0,0,1.4291786,-129.10828,-253.85734)"
       cx="355.71428"
       cy="643.79074"
       fx="355.71428"
       fy="643.79074"
       r="270" />
    <radialGradient
       inkscape:collect="always"
       xlink:href="#linearGradient3183"
       id="radialGradient3275"
       gradientUnits="userSpaceOnUse"
       gradientTransform="matrix(1.0447355,0,0,1.0447355,96.007832,70.286589)"
       cx="355.71428"
       cy="643.79074"
       fx="355.71428"
       fy="643.79074"
       r="270" />
    <linearGradient
       inkscape:collect="always"
       xlink:href="#linearGradient3925"
       id="linearGradient3195"
       gradientUnits="userSpaceOnUse"
       gradientTransform="matrix(0.5588235,0,0,0.5588235,70.237043,401.80526)"
       x1="347.31662"
       y1="295.85999"
       x2="499.20151"
       y2="587.34064" />
    <linearGradient
       inkscape:collect="always"
       xlink:href="#linearGradient3231"
       id="linearGradient3199"
       gradientUnits="userSpaceOnUse"
       gradientTransform="matrix(0.5588235,0,0,0.5588235,77.48208,408.9627)"
       x1="347.31662"
       y1="295.85999"
       x2="499.20151"
       y2="587.34064" />
    <linearGradient
       inkscape:collect="always"
       xlink:href="#linearGradient3155"
       id="linearGradient3202"
       gradientUnits="userSpaceOnUse"
       gradientTransform="matrix(0.55044,0,0,0.5673347,66.971165,401.77659)"
       x1="743.05621"
       y1="316.76093"
       x2="741.54883"
       y2="580.57324" />
    <linearGradient
       inkscape:collect="always"
       xlink:href="#linearGradient3155"
       id="linearGradient3206"
       gradientUnits="userSpaceOnUse"
       gradientTransform="matrix(0.5588235,0,0,0.5588236,69.441495,395.74915)"
       x1="223.37448"
       y1="316.76093"
       x2="223.37448"
       y2="580.57324" />
    <radialGradient
       inkscape:collect="always"
       xlink:href="#linearGradient3208"
       id="radialGradient3214"
       cx="373.51976"
       cy="656.0452"
       fx="373.51976"
       fy="656.0452"
       r="285.79425"
       gradientTransform="matrix(1,0,0,1.0044166,1.4285714,2.8167996)"
       gradientUnits="userSpaceOnUse" />
    <filter
       inkscape:collect="always"
       id="filter3264">
      <feGaussianBlur
         inkscape:collect="always"
         stdDeviation="6.0154486"
         id="feGaussianBlur3266" />
    </filter>
    <linearGradient
       inkscape:collect="always"
       xlink:href="#linearGradient3278"
       id="linearGradient3274"
       gradientUnits="userSpaceOnUse"
       gradientTransform="matrix(0.5588235,0,0,0.5588236,75.482271,401.34794)"
       x1="223.37448"
       y1="316.76093"
       x2="223.37448"
       y2="580.57324" />
    <linearGradient
       inkscape:collect="always"
       xlink:href="#linearGradient3278"
       id="linearGradient3276"
       gradientUnits="userSpaceOnUse"
       gradientTransform="matrix(0.55044,0,0,0.5673347,72.921323,407.46069)"
       x1="743.05621"
       y1="316.76093"
       x2="741.54883"
       y2="580.57324" />
    <filter
       inkscape:collect="always"
       id="filter3468">
      <feGaussianBlur
         inkscape:collect="always"
         stdDeviation="2.7915365"
         id="feGaussianBlur3470" />
    </filter>
  </defs>
  <sodipodi:namedview
     id="base"
     pagecolor="#ffffff"
     bordercolor="#666666"
     borderopacity="1.0"
     gridtolerance="10000"
     guidetolerance="10"
     objecttolerance="10"
     inkscape:pageopacity="0.0"
     inkscape:pageshadow="2"
     inkscape:zoom="0.7"
     inkscape:cx="378.28442"
     inkscape:cy="399.99447"
     inkscape:document-units="px"
     inkscape:current-layer="layer1"
     inkscape:window-width="795"
     inkscape:window-height="686"
     inkscape:window-x="293"
     inkscape:window-y="78" />
  <metadata
     id="metadata7">
    <rdf:RDF>
      <cc:Work
         rdf:about="">
        <dc:format>image/svg+xml</dc:format>
        <dc:type
           rdf:resource="http://purl.org/dc/dcmitype/StillImage" />
      </cc:Work>
    </rdf:RDF>
  </metadata>
  <g
     inkscape:label="Layer 1"
     inkscape:groupmode="layer"
     id="layer1">
    <rect
       style="fill:url(#radialGradient3214);fill-opacity:1;stroke:none;stroke-width:5.69999981;stroke-miterlimit:4;stroke-dasharray:none;stroke-opacity:1"
       id="rect3181"
       width="571.5885"
       height="574.11298"
       x="89.154083"
       y="374.703"
       ry="285.79425"
       inkscape:export-filename="/Users/mz2/workspace/MotifXplorer/images/icon_128x128.png"
       inkscape:export-xdpi="20.15"
       inkscape:export-ydpi="20.15" />
    <text
       xml:space="preserve"
       style="font-size:152.33372498px;font-style:normal;font-weight:bold;fill:url(#linearGradient3274);fill-opacity:1.0;stroke:none;stroke-width:1px;stroke-linecap:butt;stroke-linejoin:miter;stroke-opacity:1;font-family:Gujarati MT;"
       x="123.0266"
       y="693.28345"
       id="text3268"
       transform="scale(0.984998,1.0152304)"
       inkscape:export-filename="/Users/mz2/workspace/MotifXplorer/images/icon_128x128.png"
       inkscape:export-xdpi="20.15"
       inkscape:export-ydpi="20.15"><tspan
         sodipodi:role="line"
         id="tspan3270"
         x="123.0266"
         y="693.28345"
         style="font-style:italic;font-weight:bold;fill:url(#linearGradient3274);fill-opacity:1.0;stroke:none;stroke-opacity:1;font-family:Gujarati MT">m</tspan></text>
    <text
       xml:space="preserve"
       style="font-size:152.33372498px;font-style:normal;font-weight:bold;fill:url(#linearGradient3206);fill-opacity:1;stroke:none;stroke-width:1px;stroke-linecap:butt;stroke-linejoin:miter;stroke-opacity:1;font-family:Gujarati MT"
       x="116.98582"
       y="687.68469"
       id="text2160"
       transform="scale(0.984998,1.0152304)"
       inkscape:export-filename="/Users/mz2/workspace/MotifXplorer/images/icon_128x128.png"
       inkscape:export-xdpi="20.15"
       inkscape:export-ydpi="20.15"><tspan
         sodipodi:role="line"
         id="tspan2162"
         x="116.98582"
         y="687.68469"
         style="font-style:italic;font-weight:bold;fill:url(#linearGradient3206);fill-opacity:1;stroke:none;stroke-opacity:1;font-family:Gujarati MT">m</tspan></text>
    <path
       style="font-size:152.33372498px;font-style:normal;font-weight:bold;fill:url(#linearGradient3276);fill-opacity:1.0;stroke:none;stroke-width:1px;stroke-linecap:butt;stroke-linejoin:miter;stroke-opacity:1;font-family:Gujarati MT;"
       d="M 372.21925,692.43742 L 363.79368,736.83998 L 337.41798,736.83998 L 359.47099,620.09447 L 385.8467,620.09447 L 383.42892,632.47884 C 387.43407,627.54531 391.63464,623.92061 396.03064,621.60475 C 400.42653,619.23872 405.23765,618.05566 410.46401,618.05557 C 419.69542,618.05566 426.99758,621.07623 432.3705,627.11731 C 437.74322,633.15855 440.42963,641.38963 440.42973,651.81058 C 440.42963,658.30487 439.47718,664.62293 437.57237,670.76474 C 435.7162,676.90662 433.0298,682.49469 429.51313,687.52897 C 425.06824,693.8722 420.03733,698.67996 414.42037,701.95225 C 408.85209,705.22455 402.86872,706.86069 396.47024,706.86069 C 390.85314,706.86069 386.06644,705.7028 382.11014,703.38702 C 378.20258,701.02091 374.90563,697.37104 372.21925,692.43742 M 399.7672,637.68935 C 393.02669,637.68942 387.50734,640.91137 383.20912,647.35522 C 378.95967,653.74884 376.83496,662.0806 376.835,672.35054 C 376.83496,676.98213 378.03163,680.63199 380.42502,683.30015 C 382.86718,685.918 386.2374,687.22693 390.5357,687.22691 C 397.12957,687.22693 402.57566,684.08049 406.87398,677.78759 C 411.17218,671.4444 413.32131,663.33918 413.32137,653.4719 C 413.32131,648.33697 412.14905,644.43539 409.80462,641.76714 C 407.50889,639.04868 404.16308,637.68942 399.7672,637.68935 M 458.60078,587.88439 L 484.97648,587.88439 L 462.77694,705.38506 L 436.47451,705.38506 L 458.60078,587.88439 M 525.84157,638.10159 C 519.05221,638.10165 513.4596,641.27326 509.06369,647.61642 C 504.6677,653.95969 502.46973,662.03974 502.46976,671.8566 C 502.46973,677.19298 503.64199,681.27077 505.98653,684.08995 C 508.37984,686.85884 511.84775,688.24327 516.39027,688.24326 C 523.17952,688.24327 528.77214,685.07166 533.16815,678.72842 C 537.56403,672.33488 539.762,664.20449 539.76207,654.33721 C 539.762,649.05125 538.56533,645.02381 536.17205,642.25488 C 533.82748,639.48608 530.38398,638.10165 525.84157,638.10159 M 527.96628,618.76985 C 540.17718,618.76994 549.77499,621.96672 556.75975,628.36021 C 563.74433,634.75384 567.23666,643.46318 567.23676,654.48824 C 567.23666,660.88185 566.13768,667.09922 563.93979,673.14033 C 561.74173,679.13119 558.54246,684.61857 554.34197,689.60252 C 549.35981,695.54301 543.47413,700.02353 536.68491,703.04411 C 529.89554,706.06469 522.32475,707.57498 513.9725,707.57498 C 501.90803,707.57498 492.38348,704.3782 485.39883,697.98463 C 478.46299,691.59108 474.99507,682.88174 474.99508,671.8566 C 474.99507,665.51341 476.11848,659.32122 478.3653,653.28001 C 480.61211,647.18856 483.8358,641.62565 488.0364,636.59129 C 492.92077,630.75157 498.73318,626.32139 505.47366,623.30073 C 512.26293,620.28023 519.76045,618.76994 527.96628,618.76985 M 635.30184,643.84068 C 633.49454,642.78354 631.49194,641.97806 629.29404,641.42422 C 627.096,640.87052 624.72707,640.59363 622.18725,640.59356 C 615.49559,640.59363 609.92739,642.80872 605.48265,647.23884 C 601.08665,651.66908 598.10718,658.06265 596.54422,666.41954 L 589.0711,705.38506 L 562.76867,705.38506 L 578.74062,620.80875 L 605.11632,620.80875 L 602.25895,635.30754 C 605.72682,629.97126 610.0495,625.89347 615.227,623.07419 C 620.45323,620.20472 626.24123,618.76994 632.591,618.76985 C 633.51896,618.76994 634.5691,618.82028 635.74144,618.92088 C 636.91361,619.02165 638.30566,619.17269 639.91758,619.37397 L 635.30184,643.84068"
       id="path3272"
       sodipodi:nodetypes="cccccccssscccsccccscscsccccccccsscscscccssccsscscccccssccccccccsscc"
       inkscape:export-filename="/Users/mz2/workspace/MotifXplorer/images/icon_128x128.png"
       inkscape:export-xdpi="20.15"
       inkscape:export-ydpi="20.15" />
    <path
       style="font-size:152.33372498px;font-style:normal;font-weight:bold;fill:url(#linearGradient3202);fill-opacity:1;stroke:none;stroke-width:1px;stroke-linecap:butt;stroke-linejoin:miter;stroke-opacity:1;font-family:Gujarati MT"
       d="M 366.26909,686.75332 L 357.84352,731.15588 L 331.46782,731.15588 L 353.52083,614.41037 L 379.89654,614.41037 L 377.47876,626.79474 C 381.48391,621.86121 385.68448,618.23651 390.08048,615.92065 C 394.47637,613.55462 399.28749,612.37156 404.51385,612.37147 C 413.74526,612.37156 421.04742,615.39213 426.42034,621.43321 C 431.79306,627.47445 434.47947,635.70553 434.47957,646.12648 C 434.47947,652.62077 433.52702,658.93883 431.62221,665.08064 C 429.76604,671.22252 427.07964,676.81059 423.56297,681.84487 C 419.11808,688.1881 414.08717,692.99586 408.47021,696.26815 C 402.90193,699.54045 396.91856,701.17659 390.52008,701.17659 C 384.90298,701.17659 380.11628,700.0187 376.15998,697.70292 C 372.25242,695.33681 368.95547,691.68694 366.26909,686.75332 M 393.81704,632.00525 C 387.07653,632.00532 381.55718,635.22727 377.25896,641.67112 C 373.00951,648.06474 370.8848,656.3965 370.88484,666.66644 C 370.8848,671.29803 372.08147,674.94789 374.47486,677.61605 C 376.91702,680.2339 380.28724,681.54283 384.58554,681.54281 C 391.17941,681.54283 396.6255,678.39639 400.92382,672.10349 C 405.22202,665.7603 407.37115,657.65508 407.37121,647.7878 C 407.37115,642.65287 406.19889,638.75129 403.85446,636.08304 C 401.55873,633.36458 398.21292,632.00532 393.81704,632.00525 M 452.65062,582.20029 L 479.02632,582.20029 L 456.82678,699.70096 L 430.52435,699.70096 L 452.65062,582.20029 M 519.89141,632.41749 C 513.10205,632.41755 507.50944,635.58916 503.11353,641.93232 C 498.71754,648.27559 496.51957,656.35564 496.5196,666.1725 C 496.51957,671.50888 497.69183,675.58667 500.03637,678.40585 C 502.42968,681.17474 505.89759,682.55917 510.44011,682.55916 C 517.22936,682.55917 522.82198,679.38756 527.21799,673.04432 C 531.61387,666.65078 533.81184,658.52039 533.81191,648.65311 C 533.81184,643.36715 532.61517,639.33971 530.22189,636.57078 C 527.87732,633.80198 524.43382,632.41755 519.89141,632.41749 M 522.01612,613.08575 C 534.22702,613.08584 543.82483,616.28262 550.80959,622.67611 C 557.79417,629.06974 561.2865,637.77908 561.2866,648.80414 C 561.2865,655.19775 560.18752,661.41512 557.98963,667.45623 C 555.79157,673.44709 552.5923,678.93447 548.39181,683.91842 C 543.40965,689.85891 537.52397,694.33943 530.73475,697.36001 C 523.94538,700.38059 516.37459,701.89088 508.02234,701.89088 C 495.95787,701.89088 486.43332,698.6941 479.44867,692.30053 C 472.51283,685.90698 469.04491,677.19764 469.04492,666.1725 C 469.04491,659.82931 470.16832,653.63712 472.41514,647.59591 C 474.66195,641.50446 477.88564,635.94155 482.08624,630.90719 C 486.97061,625.06747 492.78302,620.63729 499.5235,617.61663 C 506.31277,614.59613 513.81029,613.08584 522.01612,613.08575 M 629.35168,638.15658 C 627.54438,637.09944 625.54178,636.29396 623.34388,635.74012 C 621.14584,635.18642 618.77691,634.90953 616.23709,634.90946 C 609.54543,634.90953 603.97723,637.12462 599.53249,641.55474 C 595.13649,645.98498 592.15702,652.37855 590.59406,660.73544 L 583.12094,699.70096 L 556.81851,699.70096 L 572.79046,615.12465 L 599.16616,615.12465 L 596.30879,629.62344 C 599.77666,624.28716 604.09934,620.20937 609.27684,617.39009 C 614.50307,614.52062 620.29107,613.08584 626.64084,613.08575 C 627.5688,613.08584 628.61894,613.13618 629.79128,613.23678 C 630.96345,613.33755 632.3555,613.48859 633.96742,613.68987 L 629.35168,638.15658"
       id="text2180"
       sodipodi:nodetypes="cccccccssscccsccccscscsccccccccsscscscccssccsscscccccssccccccccsscc"
       inkscape:export-filename="/Users/mz2/workspace/MotifXplorer/images/icon_128x128.png"
       inkscape:export-xdpi="20.15"
       inkscape:export-ydpi="20.15" />
    <text
       xml:space="preserve"
       style="font-size:223.4367218px;font-style:normal;font-weight:normal;fill:url(#linearGradient3199);fill-opacity:1;stroke:none;stroke-width:1px;stroke-linecap:butt;stroke-linejoin:miter;stroke-opacity:1;font-family:Gujarati MT;filter:url(#filter3468)"
       x="218.18793"
       y="737.18243"
       id="text3225"
       transform="scale(0.9926726,1.0073815)"
       inkscape:export-filename="/Users/mz2/workspace/MotifXplorer/images/icon_128x128.png"
       inkscape:export-xdpi="20.15"
       inkscape:export-ydpi="20.15"><tspan
         sodipodi:role="line"
         id="tspan3227"
         x="218.18793"
         y="737.18243"
         style="font-style:italic;font-weight:bold;fill:url(#linearGradient3199);fill-opacity:1;stroke:none;stroke-opacity:1">X</tspan></text>
    <text
       xml:space="preserve"
       style="font-size:223.4367218px;font-style:normal;font-weight:normal;fill:url(#linearGradient3195);fill-opacity:1;stroke:none;stroke-width:1px;stroke-linecap:butt;stroke-linejoin:miter;stroke-opacity:1;font-family:Gujarati MT;"
       x="210.94287"
       y="730.02502"
       id="text2164"
       transform="scale(0.9926726,1.0073815)"
       inkscape:export-filename="/Users/mz2/workspace/MotifXplorer/images/icon_128x128.png"
       inkscape:export-xdpi="20.15"
       inkscape:export-ydpi="20.15"><tspan
         sodipodi:role="line"
         id="tspan2166"
         x="210.94287"
         y="730.02502"
         style="font-style:italic;font-weight:bold;fill:url(#linearGradient3195);fill-opacity:1;stroke:none;stroke-opacity:1">X</tspan></text>
  </g>
</svg>
